<svg width="32" height="32" viewBox="0 0 32 32" fill="none" xmlns="http://www.w3.org/2000/svg">
<circle cx="16" cy="16" r="16" fill="#EF3F54"/>
<path d="M21.3251 17.6366C21.092 17.8625 20.985 18.1891 21.0381 18.5095L21.838 22.9369C21.9055 23.3122 21.7472 23.6919 21.4331 23.9088C21.1253 24.1338 20.7159 24.1608 20.3802 23.9808L16.3947 21.9021C16.2561 21.8283 16.1022 21.7887 15.9447 21.7842H15.7009C15.6163 21.7968 15.5335 21.8238 15.4579 21.8652L11.4714 23.9538C11.2743 24.0528 11.0512 24.0879 10.8325 24.0528C10.2998 23.952 9.9443 23.4445 10.0316 22.909L10.8325 18.4816C10.8856 18.1585 10.7785 17.8301 10.5454 17.6006L7.29595 14.451C7.02419 14.1874 6.9297 13.7914 7.05388 13.4342C7.17447 13.0778 7.48223 12.8177 7.85388 12.7592L12.3263 12.1104C12.6664 12.0753 12.9652 11.8684 13.1182 11.5624L15.0889 7.52193C15.1357 7.43194 15.196 7.34915 15.2689 7.27896L15.3499 7.21597C15.3922 7.16918 15.4408 7.13048 15.4948 7.09899L15.5929 7.06299L15.7458 7H16.1247C16.4631 7.0351 16.7609 7.23757 16.9166 7.53993L18.9134 11.5624C19.0574 11.8567 19.3373 12.0609 19.6603 12.1104L24.1327 12.7592C24.5107 12.8132 24.8266 13.0742 24.9516 13.4342C25.0695 13.795 24.9678 14.191 24.6907 14.451L21.3251 17.6366Z" fill="white"/>
</svg>
