<svg width="77" height="84" viewBox="0 0 77 84" fill="none" xmlns="http://www.w3.org/2000/svg">
<path d="M40.6851 0.0857235C38.7696 1.82523 38.0909 4.30289 38.4763 6.81488C38.8904 9.52142 40.6506 11.8904 42.6696 13.6642C44.8957 15.6211 47.7258 16.8628 49.6987 19.1059C51.3324 20.9598 52.2124 23.4146 52.3332 25.8579C52.4023 27.237 52.2355 28.616 51.8213 29.9321C51.4129 31.231 50.6594 32.3296 50.1359 33.5656C50.0151 33.8517 50.4293 34.1607 50.6766 33.9833C52.5058 32.65 53.2248 29.9378 53.4549 27.7977C53.708 25.4631 53.2996 23.0598 52.2987 20.937C51.1253 18.4536 49.1063 16.777 46.8629 15.2664C44.4298 13.6241 42.0196 11.9132 40.5931 9.27537C39.155 6.62033 38.994 2.88954 41.1223 0.526323C41.3869 0.228775 40.9785 -0.183214 40.6851 0.0857235Z" fill="#413147"/>
<path d="M29.9803 23.5232C29.9803 23.5232 30.475 19.5807 32.6436 19.7066C34.8122 19.8325 40.2595 21.3087 41.0015 22.9109C41.7435 24.5131 40.4435 27.0365 40.4435 27.0365L29.9803 23.5232Z" fill="#EF3F54"/>
<path d="M62.365 35.2876C62.365 35.2876 62.6124 32.8214 64.2862 31.9001C65.9601 30.9789 70.234 32.6383 72.2127 33.6225C74.1915 34.6067 74.0074 36.3919 73.8866 37.193C73.7601 37.9941 73.1446 39.4132 73.1446 39.4132L62.365 35.2876Z" fill="#EF3F54"/>
<path d="M75.8251 45.2726C75.6123 42.7492 75.1693 40.22 73.645 38.1257C72.3105 36.2775 70.4008 34.8928 68.1977 34.2576C65.7818 33.5595 63.1473 33.7598 60.95 34.95C60.9327 34.9443 60.9155 34.9385 60.8982 34.9328C60.8752 34.9271 60.8464 34.9214 60.8177 34.9099C60.7889 34.9042 60.7602 34.8985 60.7314 34.887C60.6509 34.8642 60.5761 34.8413 60.4956 34.8184C59.673 34.5552 58.8562 34.2862 58.0336 34.0287C56.2447 33.4508 54.4558 32.8443 52.6726 32.2492C49.6757 31.2478 46.6731 30.2922 43.659 29.371C43.6129 29.2794 43.5554 29.1936 43.5036 29.102C43.4806 29.062 43.4576 29.0162 43.4346 28.9761C43.3426 28.8388 43.2621 28.6958 43.1758 28.5642C43.0147 28.3238 42.8594 28.0949 42.7041 27.8718C41.8298 26.6415 40.7886 25.5257 39.5922 24.5988C36.9692 22.556 33.6157 21.2571 30.2909 22.1383C26.644 23.0996 24.0153 25.9263 21.6972 28.7187C19.3675 31.5167 17.0552 34.3778 15.0764 37.4334C13.1264 40.4432 10.4114 44.1396 9.1517 47.9334C8.97913 48.4369 8.83533 48.9462 8.72604 49.4497C8.53046 50.3309 8.42692 51.2121 8.44418 52.0876C8.49595 54.5481 9.67515 56.9971 11.9933 58.0843C14.645 59.3203 17.7109 58.7939 20.3799 57.9012C22.9166 57.0601 25.2808 55.7612 27.4091 54.1533C28.5768 53.2721 29.6697 52.2993 30.6878 51.2522C31.2688 50.6628 31.9303 50.0162 32.5113 49.3181C33.84 49.8331 35.1342 50.4682 36.4285 51.0118C38.8271 52.0189 41.2718 52.9287 43.7165 53.8385C46.1554 54.7483 48.6116 55.6181 51.0332 56.5851C52.2757 57.0772 53.5182 57.5865 54.7376 58.1186C54.8239 58.153 54.9044 58.1988 54.9907 58.2331C54.8009 64.2756 55.6752 70.5012 60.0987 74.993C62.411 77.3448 65.9601 79.3704 69.072 77.1903C70.4641 76.2176 71.2809 74.7584 71.9481 73.2421C72.322 72.3895 72.6556 71.514 72.9548 70.6328C73.2481 69.7688 73.5127 68.8933 73.7428 68.0121C73.8291 67.7031 73.9039 67.3941 73.9786 67.0794C74.6631 64.35 75.1406 61.5233 75.5087 58.7481C75.7043 57.3004 75.8481 55.8413 75.9401 54.3821C76.1127 51.3494 76.0782 48.2881 75.8251 45.2726Z" fill="url(#paint0_linear_2_85)"/>
<path d="M60.8176 34.91C60.1676 37.1358 59.4544 39.3331 58.5915 39.7852C57.0615 40.5862 53.6677 39.7451 48.6748 37.977C43.6819 36.2031 42.7213 35.3162 42.5257 33.4165C42.4452 32.604 42.9284 30.8587 43.5094 29.1021C43.5611 29.1936 43.6187 29.2794 43.6647 29.371C46.6846 30.2865 49.6814 31.2478 52.6783 32.2492C54.4615 32.8443 56.2504 33.4508 58.0393 34.0288C58.8619 34.292 59.6787 34.5609 60.5013 34.8184C60.5818 34.8413 60.6566 34.8642 60.7371 34.8871C60.7601 34.8928 60.7889 34.8985 60.8176 34.91Z" fill="#EF3F54"/>
<path d="M57.8093 45.2555C57.2226 44.3629 56.4748 43.4531 55.4624 43.0296C54.2947 42.5375 52.8912 42.549 51.7178 43.0353C50.8204 43.4073 50.0554 44.1225 49.5895 44.9694C48.5886 46.7947 49.0315 49.1694 50.6076 50.5313C51.7408 51.5097 53.3686 51.9789 54.8584 51.7043C56.4173 51.4182 57.6195 50.2566 58.1372 48.7917C58.5513 47.6302 58.4938 46.3026 57.8093 45.2555Z" fill="white"/>
<path d="M56.6416 45.8163C56.2447 45.1697 55.704 44.5289 54.9965 44.2141C54.5018 43.9967 53.7195 43.7793 53.15 43.9681C52.8452 43.991 52.546 44.0539 52.2412 44.1798C51.5969 44.4487 51.0505 44.958 50.7169 45.5646C50.0036 46.8635 50.3085 48.5515 51.4186 49.5299C52.0168 50.0564 52.7531 50.2795 53.5354 50.3654C53.9726 50.4169 54.4558 50.4512 54.8757 50.3139C55.2496 50.1937 55.5832 49.982 55.8765 49.7245C56.9695 48.7804 57.4124 47.0809 56.6416 45.8163ZM55.8535 48.9635C54.9447 50.022 53.2823 50.2509 52.0456 49.5185C50.8722 48.8204 50.4177 47.47 50.8319 46.1883C51.4416 44.3 54.1912 43.8022 55.6119 45.0725C56.492 45.8621 56.7336 47.2354 56.2619 48.3054C56.1584 48.5515 56.0204 48.7689 55.8535 48.9635Z" fill="#413147"/>
<path d="M42.6581 39.9572C42.0714 39.0645 41.3236 38.1547 40.3112 37.7313C39.1435 37.2392 37.74 37.2506 36.5666 37.737C35.6692 38.1089 34.9042 38.8242 34.4383 39.6711C33.4374 41.4964 33.8803 43.8711 35.4564 45.2329C36.5896 46.2114 38.2174 46.6806 39.7073 46.4059C41.2661 46.1198 42.4683 44.9583 42.986 43.4934C43.3944 42.3318 43.3426 41.0043 42.6581 39.9572Z" fill="white"/>
<path d="M41.4904 40.518C41.0993 39.8714 40.5528 39.2305 39.851 38.9158C39.3564 38.6984 38.5741 38.4809 38.0046 38.6698C37.6997 38.6926 37.4006 38.7556 37.0958 38.8815C36.4515 39.1504 35.9051 39.6597 35.5714 40.2662C34.8582 41.5651 35.163 43.2531 36.2732 44.2316C36.8714 44.758 37.6077 44.9812 38.39 45.067C38.8272 45.1185 39.3103 45.1529 39.7303 45.0155C40.1041 44.8954 40.4378 44.6837 40.7311 44.4262C41.8183 43.4877 42.2555 41.7826 41.4904 40.518ZM40.7024 43.6651C39.7935 44.7237 38.1312 44.9526 36.8944 44.2202C35.721 43.5221 35.2666 42.1717 35.6807 40.8899C36.2905 39.0016 39.04 38.5038 40.4608 39.7741C41.3409 40.5638 41.5825 41.9371 41.1108 43.0071C41.0072 43.2531 40.8692 43.4763 40.7024 43.6651Z" fill="#413147"/>
<path d="M57.7805 56.8026C57.8323 57.0315 57.6598 57.2947 57.4009 57.3519C57.3089 57.3748 57.2111 57.3634 57.1075 57.3176C49.0775 53.6269 40.3227 51.5898 32.5976 47.2296C30.3254 49.5013 27.9095 51.7386 25.1025 53.3465C20.6676 55.8814 14.668 56.6653 10.7163 52.7972C9.74419 51.8359 9.06544 50.6914 8.7088 49.444C8.81809 48.9405 8.9619 48.4312 9.13446 47.9277C9.56587 52.5568 14.3229 55.2062 18.8039 54.7541C24.3489 54.1933 28.433 50.1707 32.3099 46.5944C32.4192 46.4914 32.5745 46.4686 32.7068 46.5487C40.5355 50.9661 49.4342 52.8143 57.562 56.5508C57.7 56.6081 57.7633 56.6939 57.7805 56.8026Z" fill="#818494"/>
<path d="M72.9375 70.6273C72.3392 71.3769 71.6317 72.0521 70.7919 72.59C68.5888 74.0319 65.845 74.2265 63.5672 72.8474C61.3583 71.5028 59.9721 69.1338 59.0402 66.7935C57.8495 63.778 57.3318 60.5908 57.4008 57.3521C57.4008 57.2376 57.4008 57.1289 57.4066 57.0202C57.4124 56.8085 57.6309 56.7341 57.7805 56.797V56.8027C57.8668 56.8256 57.9243 56.9057 57.9243 57.0145C57.9013 60.3962 58.58 63.8466 59.9491 66.9423C60.8809 69.0594 62.3592 71.2281 64.499 72.3038C66.9149 73.5112 69.63 72.6472 71.4937 70.8504C72.5923 69.7919 73.3689 68.4815 73.9613 67.0796C73.9613 67.0796 73.9671 67.0739 73.9671 67.0681L72.9375 70.6273Z" fill="#818494"/>
<path d="M28.2431 34.9217C28.7321 35.4424 29.5201 35.7457 30.2161 35.8544C30.521 35.9002 30.8891 35.9688 31.148 35.7629C31.4241 35.5454 31.5334 35.1105 31.6772 34.8015C31.8497 34.4239 32.0165 34.0462 32.1891 33.6743C32.2294 33.5827 32.2696 33.4912 32.3099 33.4054C32.3272 33.3653 32.3444 33.331 32.3617 33.2966C32.4134 33.228 32.3674 33.2051 32.2179 33.2337C32.1949 33.268 32.5803 33.5255 32.6148 33.5541C33.1957 33.9547 34.0816 34.401 34.8063 34.2637C35.1917 34.1893 35.2723 33.5885 34.9156 33.4111C34.605 33.2623 34.2426 33.228 33.9148 33.1193C33.5696 33.0048 33.2648 32.8389 32.9599 32.65C32.6896 32.4784 32.3502 32.3983 32.0568 32.5642C31.7577 32.7302 31.6542 33.062 31.5219 33.3596C31.3666 33.7201 31.2055 34.0806 31.0502 34.4411C30.9697 34.6242 30.8949 34.8015 30.8143 34.9846C30.7798 35.059 30.7511 35.1277 30.7166 35.2021C30.682 35.2479 30.6935 35.2536 30.7511 35.2078C30.7223 35.2078 30.6993 35.2078 30.6705 35.2078C30.5095 35.1678 30.3139 35.1849 30.1471 35.1506C29.9573 35.1105 29.7732 35.059 29.5949 34.9904C29.2383 34.8588 28.9391 34.6413 28.617 34.4468C28.3122 34.2637 28.0073 34.6699 28.2431 34.9217Z" fill="#413147"/>
<path d="M26.8281 30.5498C26.9604 30.8244 27.271 30.9846 27.5126 31.1506C27.7312 31.2994 27.944 31.4481 28.1626 31.5912C28.3812 31.7342 28.6055 31.8658 28.8299 32.0032C28.9507 32.0776 29.0657 32.1519 29.1865 32.2206C29.3993 32.3465 29.5776 32.4037 29.825 32.3579C30.0838 32.3122 30.2622 31.9803 30.1759 31.74C30.0493 31.3795 29.6927 31.2364 29.3821 31.0648C29.152 30.9389 28.9276 30.8073 28.6976 30.6871C28.4675 30.5669 28.2316 30.4525 27.9958 30.3381C27.7254 30.2064 27.4378 30.0176 27.1272 30.0348C26.8511 30.052 26.7131 30.3094 26.8281 30.5498Z" fill="#413147"/>
<path d="M34.7949 34.1317C34.8754 34.1031 34.9559 34.0687 35.0192 34.0058C35.071 33.9543 35.1112 33.8799 35.1515 33.817C35.2148 33.714 35.278 33.611 35.3413 33.5137C35.4679 33.3077 35.5887 33.1017 35.7037 32.89C35.8188 32.6783 35.928 32.4666 36.0373 32.2491C36.0891 32.1404 36.1409 32.0317 36.1926 31.923C36.2156 31.8715 36.2444 31.8143 36.2674 31.757C36.3134 31.654 36.3249 31.5625 36.3364 31.4538C36.371 31.099 35.8533 30.8987 35.6232 31.1619C35.5542 31.242 35.4966 31.3164 35.4564 31.4194C35.4449 31.448 35.4334 31.4767 35.4219 31.5053C35.3988 31.551 35.3988 31.5625 35.4161 31.5224C35.3701 31.6311 35.3183 31.7456 35.2723 31.8543C35.1745 32.066 35.0767 32.2777 34.9732 32.4895C34.8696 32.7012 34.7661 32.9072 34.6626 33.1189C34.605 33.2276 34.5533 33.3306 34.4958 33.4393C34.4612 33.508 34.4152 33.5766 34.3922 33.6453C34.3692 33.7369 34.3807 33.817 34.398 33.9085C34.4152 34.0745 34.6453 34.1889 34.7949 34.1317Z" fill="#413147"/>
<path d="M33.5351 30.3668C33.725 30.2237 33.9033 30.0807 34.0701 29.909C34.2369 29.7316 34.375 29.5428 34.5073 29.3425C34.7546 28.9649 34.9732 28.57 35.163 28.158C35.2895 27.8834 35.5024 27.5458 35.3298 27.2482C35.2263 27.0708 34.9962 26.9678 34.7949 27.0308C34.5648 27.1052 34.4727 27.2826 34.3922 27.4886C34.375 27.5343 34.3577 27.5801 34.3404 27.6259C34.3289 27.6545 34.3174 27.6831 34.3059 27.7174C34.3059 27.7174 34.2772 27.7918 34.2944 27.7461C34.3117 27.706 34.2829 27.7747 34.2829 27.7747C34.2714 27.8033 34.2542 27.8319 34.2426 27.8662C34.2139 27.9234 34.1909 27.9864 34.1621 28.0436C34.0701 28.2381 33.9665 28.4327 33.863 28.6272C33.7422 28.8447 33.5984 29.0507 33.4834 29.2738C33.3683 29.5084 33.2533 29.7316 33.144 29.9662C33.0865 30.0864 33.0922 30.2237 33.19 30.321C33.2648 30.4068 33.4316 30.4469 33.5351 30.3668Z" fill="#413147"/>
<path d="M63.4579 49.6275C64.0332 50.7719 65.4712 51.2068 66.6101 50.6517C67.1738 50.3771 67.5765 49.8392 67.7893 49.2613C67.9964 48.6948 67.9964 48.1168 67.7088 47.5847C67.4614 47.1212 66.7654 46.1542 66.173 46.7149C66.0924 46.7893 66.0694 46.9038 66.0924 47.0068C66.1039 47.064 66.0809 46.9152 66.0924 46.9724C66.1039 47.064 66.1212 47.1441 66.1672 47.2299C66.2247 47.3272 66.3053 47.413 66.3858 47.4874C66.4606 47.5561 66.5354 47.6247 66.6044 47.6991C66.7022 47.8079 66.6964 47.8021 66.7712 47.9109C66.8287 47.9967 66.8805 48.0825 66.9265 48.1741C66.9438 48.2027 66.9783 48.2942 66.9495 48.2141C66.9668 48.2542 66.9783 48.3 66.9898 48.34C67.0243 48.4487 66.9955 48.2599 66.9955 48.3801C66.9955 48.4316 66.9955 48.4888 66.9955 48.5403C66.9898 48.6776 66.984 48.7062 66.9553 48.8378C66.8632 49.2269 66.6446 49.5931 66.311 49.8163C65.9601 50.0509 65.5575 50.1425 65.1318 50.0624C64.6199 49.9708 64.1655 49.7476 63.8376 49.3356C63.6535 49.1182 63.3429 49.4043 63.4579 49.6275Z" fill="#413147"/>
<path d="M68.376 46.7032C68.6464 47.2467 69.049 47.8132 69.5667 48.1566C70.1017 48.517 70.7747 48.5685 71.3786 48.3568C72.6096 47.9277 73.4207 46.6517 73.041 45.3699C72.9375 45.0266 72.7649 44.7119 72.5406 44.4372C72.322 44.1683 71.9654 43.8707 71.5915 43.9051C71.2981 43.9337 71.114 44.2083 71.2578 44.483C71.3326 44.626 71.4477 44.729 71.5627 44.8378C71.6145 44.8893 71.6663 44.9408 71.7123 44.9922C71.7295 45.0094 71.8331 45.1353 71.8043 45.101C71.9884 45.347 72.0574 45.5301 72.1149 45.822C72.2012 46.2511 72.0286 46.7947 71.649 47.1724C71.2809 47.5386 70.7171 47.7789 70.1937 47.613C69.607 47.4241 69.1641 46.9378 68.8534 46.4285C68.6694 46.1138 68.215 46.3827 68.376 46.7032Z" fill="#413147"/>
<path d="M65.7013 41.4161C66.3743 42.5605 67.8699 42.818 69.026 42.2973C70.1822 41.7766 70.8782 40.2087 70.0787 39.1044C69.8601 38.8068 69.5897 38.5493 69.2274 38.4292C68.9052 38.3262 68.5256 38.3605 68.3185 38.6409C68.2783 38.6981 68.284 38.7897 68.3185 38.8469C68.4048 38.9728 68.4911 39.0472 68.6176 39.133C68.6924 39.1845 68.8075 39.276 68.8592 39.3218C69.0605 39.4763 69.1986 39.5736 69.3194 39.8254C69.3482 39.8826 69.3539 39.894 69.3309 39.854C69.3424 39.8883 69.3539 39.9226 69.3654 39.957C69.3827 40.0142 69.3999 40.0714 69.4057 40.1286C69.4114 40.1744 69.4114 40.4033 69.4057 40.4605C69.3712 40.7008 69.2734 40.9297 69.1296 41.1243C68.796 41.5706 68.2092 41.7995 67.657 41.8052C67.0415 41.8166 66.4951 41.5534 66.1097 41.0785C65.9256 40.8553 65.5517 41.1643 65.7013 41.4161Z" fill="#413147"/>
<path d="M61.3756 44.6891C61.7668 45.0439 62.1924 45.3701 62.7216 45.4731C63.2566 45.5761 63.78 45.433 64.223 45.1355C65.034 44.5861 65.4884 43.6363 65.2468 42.6693C65.1318 42.2115 64.8672 41.7652 64.4703 41.5019C64.2575 41.3646 63.9008 41.2788 63.6995 41.4848C63.5269 41.6564 63.6305 41.891 63.7455 42.0684C63.8088 42.1657 63.9008 42.2401 63.9756 42.3259C64.0044 42.3603 64.0389 42.3946 64.0676 42.4289C64.0676 42.4289 64.1194 42.4861 64.0907 42.4518C64.0561 42.4118 64.1309 42.5033 64.1367 42.5148C64.1884 42.5949 64.2345 42.675 64.2747 42.7551C64.246 42.6921 64.2862 42.7951 64.2977 42.8123C64.3207 42.8695 64.338 42.9325 64.3495 42.9897C64.3553 43.0126 64.3783 43.1213 64.3668 43.0469C64.3725 43.0927 64.3783 43.1385 64.3783 43.1842C64.3783 43.2357 64.3783 43.293 64.3783 43.3445C64.3783 43.3673 64.3725 43.3902 64.3725 43.4131C64.3783 43.3616 64.3725 43.4017 64.3668 43.4303C64.315 43.6649 64.2805 43.7564 64.1654 43.9453C63.9584 44.2886 63.596 44.5919 63.1876 44.6949C62.6296 44.8322 62.0486 44.6148 61.5252 44.4488C61.3814 44.4145 61.2778 44.5976 61.3756 44.6891Z" fill="#413147"/>
<path d="M69.7566 39.9457C69.7278 39.3163 69.4287 38.7784 68.8938 38.4408C68.2093 38.0116 67.2429 38.0059 66.5469 38.4065C65.7013 38.8928 65.2987 40.0144 65.6783 40.9127C65.8681 41.3648 66.2133 41.7539 66.6562 41.9828C67.1509 42.2402 67.7376 42.2517 68.2725 42.1372C69.2677 41.9255 69.8084 40.907 69.7566 39.9457Z" fill="white"/>
<path d="M64.6256 42.7207C64.5509 41.1872 62.6584 40.4719 61.4102 41.1815C60.5646 41.6678 60.1619 42.7894 60.5416 43.6877C60.7314 44.1398 61.0765 44.5289 61.5195 44.7578C62.0141 45.0152 62.6009 45.0267 63.1358 44.9122C64.1367 44.7005 64.6717 43.682 64.6256 42.7207Z" fill="white"/>
<path d="M71.6145 43.997C70.9415 43.5736 69.9579 43.5679 69.2676 43.9627C68.4221 44.4491 68.0194 45.5706 68.3991 46.469C68.5889 46.921 68.934 47.3101 69.3769 47.539C69.8716 47.7965 70.4583 47.8079 70.9933 47.6935C71.9942 47.4761 72.5291 46.4633 72.4831 45.5019C72.4428 44.8725 72.1495 44.3346 71.6145 43.997Z" fill="white"/>
<path d="M66.4433 46.5319C65.7703 46.1084 64.8442 46.0569 64.108 46.4747C63.2624 46.961 62.8597 48.0826 63.2394 48.9809C63.4292 49.433 63.7743 49.8221 64.2172 50.0509C64.7119 50.3084 65.2987 50.3199 65.8336 50.2054C66.8345 49.988 67.3694 48.9752 67.3234 48.0139C67.2889 47.3501 66.938 46.8409 66.4433 46.5319Z" fill="white"/>
<path d="M32.3387 26.0693C32.2697 26.178 28.1511 34.1317 28.3524 34.3949C28.5537 34.6581 30.1931 35.4992 30.6763 35.3104C31.1595 35.1216 34.6626 27.208 34.7086 26.9619C34.7603 26.7101 32.6148 25.6172 32.3387 26.0693Z" fill="white"/>
<path d="M28.3007 27.4769C28.3007 27.4769 35.7612 30.9044 35.7785 31.1275C35.7958 31.3507 34.9502 33.4736 34.6683 33.4907C34.3865 33.5079 27.1848 30.4638 27.1157 30.0861C27.041 29.7085 27.7427 27.4139 28.3007 27.4769Z" fill="white"/>
<path d="M70.1304 47.1326C70.5158 47.2814 70.9703 47.2413 71.3212 47.0239C71.511 46.9095 71.6663 46.7607 71.7986 46.5833C71.9539 46.3773 72.0689 46.1141 71.8906 45.8852C71.9079 45.9138 71.9194 45.9367 71.9366 45.9653C71.9366 45.9596 71.9309 45.9539 71.9309 45.9481C71.9021 45.8337 71.7296 45.7765 71.649 45.8738C71.6433 45.8795 71.6433 45.8852 71.6375 45.8852C71.6663 45.868 71.6893 45.8566 71.7181 45.8394C71.603 45.8852 71.5167 45.9653 71.4592 46.074C71.4189 46.1427 71.3844 46.2171 71.3384 46.2857C71.3269 46.3029 71.3154 46.3201 71.3039 46.3372C71.2924 46.3544 71.2981 46.3487 71.3154 46.3258C71.3097 46.3315 71.3039 46.343 71.2924 46.3487C71.2694 46.3773 71.2406 46.4059 71.2119 46.4345C71.1831 46.4631 71.1486 46.4917 71.1141 46.5204C71.0623 46.5661 71.1601 46.4917 71.1026 46.5318C71.0853 46.5432 71.0681 46.5547 71.0508 46.5661C70.9818 46.6119 70.907 46.652 70.838 46.692C70.8035 46.7092 70.7689 46.7264 70.7344 46.7435C70.7804 46.7264 70.7229 46.7492 70.7114 46.7492C70.6884 46.755 70.6712 46.7607 70.6481 46.7721C70.4756 46.8236 70.3548 46.8465 70.1765 46.8293C70.1017 46.8236 70.0327 46.8923 70.0269 46.961C70.0097 47.0468 70.0557 47.104 70.1304 47.1326Z" fill="#413147"/>
<path d="M72.0459 45.639C72.0517 45.5989 72.0574 45.5589 72.0574 45.5131C72.0574 45.4902 72.0574 45.473 72.0574 45.4502C72.0574 45.4273 72.0574 45.4101 72.0574 45.3872C72.0574 45.3472 72.0286 45.3128 71.9941 45.3014C71.9539 45.2899 71.9136 45.3071 71.8963 45.3414C71.8848 45.3586 71.8733 45.3758 71.8676 45.3929C71.8561 45.4101 71.8446 45.4273 71.8388 45.4444C71.8216 45.4788 71.8043 45.5188 71.7928 45.5589C71.7813 45.5818 71.7755 45.6047 71.7755 45.6333C71.7755 45.6619 71.7813 45.6848 71.7928 45.7077C71.8158 45.742 71.8446 45.7649 71.8791 45.7763C71.9136 45.7878 71.9596 45.782 71.9884 45.7592C72.0114 45.7477 72.0286 45.7305 72.0401 45.7077C72.0344 45.6905 72.0459 45.6619 72.0459 45.639Z" fill="#413147"/>
<path d="M64.6544 49.8334C64.7694 50.0222 65.0685 50.0795 65.2756 50.0509C65.4999 50.0222 65.7185 49.9421 65.9026 49.8162C66.0924 49.6789 66.2535 49.5187 66.3685 49.3127C66.4203 49.2154 66.4778 49.101 66.5008 48.9923C66.5123 48.9351 66.5181 48.8836 66.5181 48.8263C66.5181 48.7748 66.5238 48.7233 66.5066 48.6776C66.4893 48.6261 66.4376 48.6032 66.38 48.6261C66.311 48.6604 66.242 48.7462 66.1902 48.7977C66.1269 48.8664 66.0694 48.9522 66.0234 49.0094C65.9141 49.1468 65.7876 49.2898 65.6495 49.4043C65.615 49.4329 65.6955 49.3757 65.6265 49.4214C65.6092 49.4329 65.592 49.4443 65.5747 49.4558C65.5402 49.4786 65.4999 49.4958 65.4597 49.5187C65.4252 49.5359 65.4137 49.5416 65.3619 49.553C65.3216 49.5645 65.2814 49.5759 65.2353 49.5816C65.1376 49.5988 65.1145 49.5988 65.0225 49.6045C64.9305 49.6103 64.8327 49.5988 64.7407 49.616C64.6486 49.6446 64.6084 49.759 64.6544 49.8334Z" fill="#413147"/>
<path d="M61.9739 44.1796C62.319 44.5802 62.946 44.626 63.3832 44.357C63.5097 44.2826 63.6248 44.1682 63.665 44.0251C63.688 43.9507 63.6823 43.8592 63.6018 43.8134C63.5787 43.802 63.5442 43.7905 63.5155 43.7905C63.481 43.7905 63.4522 43.7962 63.4234 43.8134C63.4177 43.8191 63.3774 43.8477 63.4119 43.8306C63.3947 43.842 63.3717 43.8477 63.3544 43.8592C63.3314 43.8706 63.3141 43.8935 63.2911 43.905C63.2624 43.9279 63.3314 43.8821 63.2854 43.9107C63.2739 43.9164 63.2681 43.9221 63.2566 43.9279C63.2451 43.9336 63.1703 43.9908 63.2049 43.9622C63.2279 43.945 63.1818 43.9794 63.1818 43.9794C63.1588 43.9965 63.1301 44.0137 63.1071 44.0251C63.0783 44.0366 63.0553 44.0537 63.0265 44.0652C63.0668 44.048 63.0035 44.0709 62.992 44.0766C62.9345 44.0938 62.877 44.111 62.8137 44.1167C62.808 44.1167 62.7504 44.1281 62.7964 44.1224C62.7792 44.1224 62.7619 44.1281 62.7447 44.1281C62.7159 44.1281 62.6872 44.1339 62.6526 44.1281C62.6181 44.1281 62.5894 44.1281 62.5549 44.1224C62.5203 44.1167 62.6009 44.1339 62.5434 44.1224C62.5261 44.1167 62.5088 44.1167 62.4916 44.111C62.3708 44.0824 62.273 44.048 62.181 43.9679C62.0372 43.8477 61.8473 44.0366 61.9739 44.1796Z" fill="#413147"/>
<path d="M67.2831 41.7537C67.7145 41.8911 68.215 41.8281 68.6003 41.5992C68.8017 41.4791 68.9857 41.3189 69.118 41.13C69.2446 40.9469 69.3251 40.678 69.2388 40.4663C69.2101 40.4033 69.1295 40.4091 69.0835 40.4491C69.0203 40.5063 68.9627 40.5864 68.9225 40.6551C68.8534 40.7524 68.8074 40.8039 68.7384 40.8954C68.7154 40.924 68.7039 40.9412 68.6694 40.9813C68.6406 41.0156 68.6061 41.0442 68.5773 41.0785C68.5026 41.1472 68.4508 41.193 68.376 41.2445C68.0711 41.4447 67.726 41.5535 67.3636 41.4676C67.1796 41.4276 67.1048 41.6965 67.2831 41.7537Z" fill="#413147"/>
<path d="M44.0558 30.5101C43.8603 30.779 43.7625 31.1052 43.6992 31.4256C43.6647 31.5915 43.6474 31.7575 43.6532 31.9234C43.6532 32.015 43.6647 32.1065 43.6935 32.1924C43.7165 32.2782 43.7395 32.3469 43.8027 32.4098C43.8488 32.4499 43.9293 32.4613 43.9696 32.4098C44.0731 32.2896 44.0904 32.1065 44.1134 31.952C44.1306 31.8147 44.1479 31.6717 44.1709 31.5343C44.2227 31.2311 44.3204 30.945 44.401 30.6474C44.424 30.5616 44.378 30.4643 44.2917 30.43C44.1996 30.4014 44.1076 30.4357 44.0558 30.5101Z" fill="#413147"/>
<path d="M43.5209 33.7429C43.5496 33.8917 43.6014 34.029 43.6647 34.1663C43.6762 34.1949 43.6934 34.2235 43.7107 34.2522C43.7337 34.2865 43.7625 34.3323 43.7912 34.3609C43.8027 34.3723 43.82 34.3838 43.8315 34.3895C43.8488 34.3952 43.866 34.4066 43.8833 34.4124C43.8948 34.4181 43.889 34.4124 43.8603 34.4009C43.8315 34.3838 43.8257 34.378 43.8373 34.3895C43.8488 34.4009 43.8603 34.4124 43.8718 34.4238C43.9178 34.4639 43.9696 34.4696 44.0271 34.4753C44.0731 34.481 44.1306 34.4353 44.1364 34.3895C44.1364 34.378 44.1421 34.3666 44.1421 34.3552C44.1479 34.3323 44.1479 34.3094 44.1479 34.2808C44.1421 34.2522 44.1364 34.235 44.1249 34.2121C44.1191 34.2007 44.1191 34.1949 44.1134 34.1835C44.1076 34.1663 44.1076 34.1778 44.1191 34.2064C44.1249 34.2407 44.1249 34.2464 44.1249 34.2235C44.1249 34.2178 44.1249 34.2178 44.1249 34.2121C44.1249 34.1835 44.1191 34.1606 44.1076 34.1377C44.1019 34.1205 44.0961 34.1091 44.0904 34.0919C44.0558 34.0233 44.0213 33.9546 43.9926 33.8802C43.9983 33.8974 44.0041 33.9145 44.0156 33.9317C43.9753 33.8344 43.9408 33.7314 43.9178 33.6227C43.8948 33.5197 43.7682 33.4453 43.6647 33.4797C43.5554 33.5254 43.4979 33.6284 43.5209 33.7429Z" fill="#413147"/>
<path d="M53.7828 49.0549C53.9784 49.0835 54.197 49.0892 54.3925 49.0377C54.5824 48.9862 54.7664 48.889 54.9217 48.7688C55.0885 48.6429 55.2381 48.4942 55.3589 48.3168C55.4797 48.1451 55.6062 47.8876 55.4509 47.6988C55.4222 47.6644 55.3704 47.653 55.3301 47.6644C55.1518 47.7159 55.077 47.9219 54.985 48.065C54.9102 48.1794 54.7837 48.311 54.6686 48.4026C54.6284 48.4369 54.5363 48.4941 54.4731 48.5342C54.404 48.5743 54.3063 48.62 54.2602 48.6429C54.1049 48.7059 53.9669 48.7631 53.7886 48.7917C53.6563 48.8146 53.6563 49.0377 53.7828 49.0549Z" fill="#413147"/>
<path d="M55.4912 47.3157C55.6695 47.3157 55.6695 47.041 55.4912 47.041C55.3128 47.041 55.3128 47.3157 55.4912 47.3157Z" fill="#413147"/>
<path d="M37.9586 43.8422C38.3555 44.0253 38.7984 44.0539 39.2126 43.8994C39.4196 43.825 39.6095 43.7163 39.782 43.5789C39.9431 43.4473 40.1732 43.207 40.0581 42.9838C40.0351 42.9438 39.9891 42.9209 39.9431 42.9209C39.7533 42.9209 39.6152 43.1326 39.4829 43.2471C39.3736 43.3386 39.2183 43.4416 39.0803 43.4931C38.7581 43.619 38.413 43.659 38.0736 43.5618C37.9126 43.5103 37.7918 43.7678 37.9586 43.8422Z" fill="#413147"/>
<path d="M40.8231 42.1254C40.8174 42.0224 40.8059 41.9194 40.7944 41.8164C40.7944 41.7936 40.7886 41.7707 40.7714 41.7535C40.7598 41.7363 40.7368 41.7192 40.7138 41.7134C40.6678 41.702 40.616 41.7192 40.593 41.7592C40.547 41.8451 40.501 41.9366 40.455 42.0224C40.4262 42.0854 40.4147 42.1598 40.455 42.217C40.4837 42.257 40.524 42.2914 40.57 42.3085C40.616 42.32 40.6736 42.3143 40.7196 42.2914C40.7829 42.2628 40.8289 42.1941 40.8231 42.1254Z" fill="#413147"/>
<path d="M72.5924 35.9117C72.6442 35.9231 72.6959 35.9345 72.7477 35.9517C72.7995 35.9689 72.8512 35.986 72.8973 36.0089C72.88 36.0032 72.857 35.9918 72.8397 35.986C72.8857 36.0032 72.926 36.0318 72.9778 36.0433C73.0065 36.0547 73.0353 36.0604 73.0641 36.0662C73.0871 36.0662 73.1043 36.0719 73.1273 36.0719C73.1618 36.0719 73.1906 36.0662 73.2194 36.049C73.2654 36.0318 73.3114 35.9975 73.3344 35.9517C73.3517 35.9117 73.3632 35.8716 73.3689 35.8315C73.3689 35.7801 73.3402 35.6999 73.2999 35.6656C73.2654 35.6427 73.2366 35.6141 73.2021 35.5912C73.1676 35.5683 73.1331 35.5512 73.0928 35.5397C73.0526 35.5283 73.0065 35.5168 72.9605 35.5054C72.8972 35.4939 72.8397 35.4882 72.7765 35.4939C72.7189 35.4997 72.6557 35.5054 72.5981 35.5168C72.5809 35.5226 72.5636 35.5283 72.5521 35.5397C72.5291 35.5512 72.5119 35.5683 72.4946 35.5912C72.4658 35.6256 72.4486 35.6713 72.4486 35.7114C72.4486 35.7457 72.4601 35.7801 72.4773 35.8144C72.4946 35.8602 72.5464 35.9002 72.5924 35.9117Z" fill="#413147"/>
<path d="M72.5579 35.0073C72.6326 35.0416 72.7074 35.0759 72.788 35.1103C72.8397 35.1332 72.8857 35.1503 72.9375 35.1675C72.9835 35.1789 73.0238 35.1904 73.0698 35.1789C73.0986 35.1732 73.1158 35.156 73.1388 35.1446C73.1849 35.1103 73.2021 35.0645 73.1964 35.0073C73.1906 34.9787 73.1906 34.9558 73.1734 34.9272C73.1503 34.8871 73.1158 34.8642 73.0756 34.8413C73.0583 34.8299 73.0411 34.8242 73.0238 34.8127C72.995 34.7956 72.9605 34.7841 72.926 34.7727C72.8455 34.7441 72.7707 34.7097 72.6902 34.6811C72.6499 34.664 72.5866 34.6754 72.5579 34.6983C72.5233 34.7212 72.5003 34.7441 72.4888 34.7841C72.4716 34.8184 72.4658 34.8585 72.4773 34.8986C72.4888 34.9443 72.5176 34.9901 72.5579 35.0073Z" fill="#413147"/>
<path d="M38.8501 23.5061C38.9307 23.5747 39.017 23.6434 39.1147 23.6949C39.155 23.7178 39.201 23.7407 39.247 23.7578C39.2988 23.7807 39.3563 23.8093 39.4196 23.8208C39.5001 23.8379 39.5922 23.8494 39.6497 23.7807C39.6785 23.7464 39.69 23.7178 39.6842 23.6663C39.6785 23.6205 39.6497 23.5862 39.6094 23.5576C39.5922 23.5461 39.5692 23.5404 39.5519 23.5347C39.5347 23.529 39.5807 23.5461 39.5577 23.5404C39.5519 23.5404 39.5462 23.5347 39.5462 23.5347C39.5116 23.5175 39.4771 23.5061 39.4426 23.4946C39.4196 23.4889 39.3966 23.4775 39.3736 23.4717C39.3563 23.466 39.3851 23.4775 39.3851 23.4775C39.3793 23.4775 39.3736 23.4717 39.3736 23.4717C39.3621 23.466 39.3506 23.4603 39.3333 23.4546C39.2816 23.4317 39.2355 23.4031 39.1895 23.3745C39.1665 23.3573 39.1435 23.3458 39.1205 23.3287C39.1147 23.323 39.1147 23.323 39.109 23.3172C39.1378 23.3344 39.1205 23.3287 39.109 23.3172C39.0975 23.3058 39.086 23.3001 39.0745 23.2886C39.0112 23.2371 38.9134 23.2257 38.8559 23.2886C38.7984 23.3458 38.7869 23.4488 38.8501 23.5061Z" fill="#413147"/>
<path d="M39.736 22.991C39.7533 23.0024 39.7705 23.0139 39.7878 23.0253C39.7763 23.0196 39.7648 23.0081 39.7533 23.0024C39.7821 23.0253 39.8051 23.0425 39.8281 23.0711C39.8511 23.094 39.8741 23.1169 39.8913 23.1455C39.8856 23.134 39.8798 23.1283 39.8683 23.1169C39.8913 23.1455 39.9086 23.1741 39.9259 23.2027C39.9431 23.2428 40.0006 23.2599 40.0409 23.2485C40.0869 23.2313 40.1157 23.197 40.1157 23.1512C40.1157 23.1111 40.1157 23.0711 40.1099 23.031C40.1042 22.9967 40.0984 22.9624 40.0812 22.928C40.0524 22.8537 40.0006 22.785 39.9431 22.7278C39.9086 22.6934 39.8683 22.682 39.8223 22.6763C39.7705 22.6763 39.7188 22.7049 39.69 22.7449C39.6267 22.825 39.6498 22.9395 39.736 22.991Z" fill="#413147"/>
<path d="M68.4968 70.1067C69.0835 70.1525 69.7163 70.101 70.2627 69.8835C70.5561 69.7691 70.8322 69.6375 71.0853 69.4487C71.2406 69.3342 71.3959 69.2255 71.5167 69.071C71.534 69.0481 71.6548 68.8364 71.6433 68.8479C71.6202 68.8707 71.6145 68.9165 71.6548 68.865C71.7525 68.7334 71.7525 68.5732 71.7238 68.4244C71.7238 68.5045 71.7238 68.5846 71.7238 68.6647C71.741 68.5846 71.7756 68.5274 71.7756 68.4416C71.7756 68.3786 71.7525 68.3214 71.7468 68.2642C71.7295 68.144 71.5857 68.0639 71.4764 68.0582C71.5857 68.0582 71.3499 68.0525 71.3269 68.0582C71.2751 68.0582 71.2233 68.0754 71.1773 68.104C71.1313 68.1269 71.1198 68.1326 71.1543 68.1097C71.2348 68.1097 71.3154 68.1097 71.3959 68.1097C71.2521 68.0811 71.1256 68.0925 70.9875 68.1555C70.9587 68.1669 70.9357 68.1841 70.907 68.2013C71.0163 68.1383 70.8437 68.2241 70.8207 68.2356C70.6999 68.2928 70.5964 68.3844 70.4871 68.453C70.2685 68.5961 70.0441 68.7277 69.8083 68.8421C69.7738 68.8593 69.6185 68.9222 69.7278 68.8822C69.6357 68.9165 69.5495 68.9508 69.4574 68.9909C69.4057 69.0138 69.4172 69.0081 69.4632 68.9909C69.4344 69.0023 69.4057 69.0138 69.3769 69.0252C69.3194 69.0481 69.2561 69.071 69.1986 69.0882C69.072 69.1282 68.9455 69.1626 68.8132 69.1855C68.8074 69.1855 68.7154 69.2026 68.7614 69.1969C68.8074 69.1912 68.7154 69.2026 68.7039 69.2026C68.6349 69.2083 68.5601 69.2141 68.4911 69.2198C68.2552 69.2312 68.0251 69.4201 68.0366 69.6718C68.0539 69.9122 68.2437 70.0838 68.4968 70.1067Z" fill="#413147"/>
<path d="M70.8092 66.7303C71.2291 66.6845 71.6375 66.5873 72.0057 66.3813C72.1782 66.284 72.3393 66.1581 72.4716 66.0093C72.5234 65.9521 72.6154 65.8205 72.6269 65.7404C72.6326 65.7232 72.6326 65.729 72.6211 65.7576C72.6039 65.7919 72.6096 65.7976 72.6269 65.7633C72.6384 65.7518 72.6442 65.7347 72.6557 65.7232C72.7247 65.6145 72.7419 65.5058 72.7362 65.3799C72.7362 65.2369 72.6154 65.1224 72.4716 65.1167C72.3623 65.1167 72.2703 65.1224 72.1667 65.1682C72.1495 65.1739 72.1322 65.1854 72.1207 65.1911C72.1782 65.1682 72.184 65.1625 72.1437 65.1796C72.1092 65.1854 72.0804 65.1968 72.0459 65.1968C72.0862 65.1911 72.1265 65.1854 72.1667 65.1796C72.115 65.1854 72.0689 65.1911 72.0172 65.1968C71.9711 65.214 71.9251 65.2369 71.8791 65.254C71.8446 65.2712 71.8158 65.2826 71.7813 65.2998C71.8216 65.2826 71.8619 65.2655 71.9021 65.2483C71.7353 65.317 71.5743 65.3914 71.4074 65.46C71.4535 65.4429 71.4937 65.4257 71.5397 65.4028C71.2636 65.5172 70.9875 65.6088 70.6942 65.6546C70.7402 65.6488 70.792 65.6431 70.838 65.6374C70.8265 65.6374 70.8207 65.6374 70.8092 65.6431C70.6597 65.6603 70.5389 65.6889 70.4238 65.8033C70.3318 65.8949 70.257 66.0494 70.2628 66.1867C70.2685 66.3241 70.3145 66.4728 70.4238 66.5701C70.5216 66.6617 70.6654 66.7475 70.8092 66.7303Z" fill="#413147"/>
<path d="M17.6936 52.454C18.2688 52.6199 18.8613 52.7172 19.4595 52.7515C19.7586 52.7687 20.0578 52.7515 20.3569 52.7115C20.6732 52.6714 21.1679 52.5512 21.2312 52.185C21.306 51.7559 20.7825 51.6872 20.4777 51.6929C20.1786 51.6986 19.8794 51.7444 19.5803 51.7616C19.0166 51.7959 18.4587 51.7788 17.9065 51.6872C17.6936 51.6529 17.4808 51.7444 17.4175 51.9619C17.3542 52.1736 17.4865 52.391 17.6936 52.454Z" fill="#413147"/>
<path d="M21.4039 50.5826C21.5362 50.554 21.6685 50.5254 21.8065 50.4968C21.9388 50.4682 22.0769 50.4453 22.2034 50.4052C22.353 50.3595 22.5083 50.3137 22.6463 50.2336C22.8304 50.1306 23.0432 50.0047 23.0432 49.7644C23.0375 49.7358 23.0375 49.7014 23.0317 49.6728C22.9742 49.5984 22.9109 49.524 22.8534 49.4497C22.7844 49.3982 22.6923 49.381 22.6061 49.3753C22.5428 49.3696 22.4853 49.3696 22.422 49.3638C22.2609 49.3524 22.0884 49.3924 21.9273 49.4153C21.795 49.4325 21.6627 49.4725 21.5304 49.5069C21.3981 49.5412 21.2658 49.5698 21.1335 49.6042C20.8747 49.6671 20.6963 49.9704 20.7769 50.2279C20.8632 50.4968 21.122 50.6399 21.4039 50.5826Z" fill="#413147"/>
<path d="M2.9911 52.6545C2.49642 52.5972 1.99023 52.5915 1.49554 52.6545C1.00661 52.7117 0.465902 52.7803 0.0690026 53.0836C-0.0345364 53.1637 -0.0172799 53.3526 0.143781 53.3526C0.621211 53.3411 1.07563 53.1752 1.55306 53.118C2.03049 53.0607 2.51943 53.0665 2.99686 53.118C3.1234 53.1351 3.2327 53.0035 3.2327 52.8833C3.22119 52.746 3.1119 52.6716 2.9911 52.6545Z" fill="#413147"/>
<path d="M3.01412 56.8086C2.75527 57.192 2.49642 57.5697 2.24333 57.9531C2.11678 58.1362 2.00749 58.3307 1.89244 58.5195C1.82917 58.6225 1.76014 58.7198 1.70837 58.8228C1.65661 58.9315 1.62209 59.0517 1.58183 59.1604C1.51855 59.3435 1.76014 59.4465 1.88094 59.3321C1.97297 59.252 2.07651 59.1719 2.15129 59.0746C2.22607 58.9773 2.2951 58.8858 2.36412 58.7885C2.49642 58.6111 2.63447 58.4337 2.76102 58.2449C3.01987 57.8615 3.27872 57.4839 3.53181 57.1005C3.62385 56.9689 3.56057 56.7686 3.42252 56.6885C3.27872 56.6141 3.10615 56.677 3.01412 56.8086Z" fill="#413147"/>
<path d="M71.1946 80.7557C71.2866 81.2993 71.3787 81.8371 71.4707 82.3807C71.5627 82.9186 71.672 83.4622 71.9884 83.92C72.0689 84.0401 72.2932 84.0401 72.3278 83.8742C72.4428 83.3134 72.3278 82.7584 72.1955 82.2091C72.0632 81.6712 71.9309 81.1276 71.7986 80.5897C71.7583 80.4295 71.5742 80.3322 71.4189 80.3723C71.2349 80.4238 71.1658 80.5897 71.1946 80.7557Z" fill="#413147"/>
<path d="M73.5989 78.2894C73.8693 78.5011 74.1396 78.7128 74.41 78.9303C74.5423 79.0333 74.6688 79.1362 74.8011 79.2392C74.8817 79.3022 74.9565 79.3709 75.0485 79.4109C75.129 79.4452 75.2095 79.4853 75.2901 79.5196C75.3649 79.554 75.4511 79.554 75.5144 79.491C75.5662 79.4395 75.5892 79.3308 75.5432 79.2679C75.4972 79.2049 75.4511 79.142 75.4051 79.079C75.3418 78.9932 75.2786 78.936 75.198 78.8673C75.0657 78.7586 74.9334 78.6499 74.8011 78.5412C74.5365 78.3237 74.2719 78.1063 74.0016 77.8888C73.8865 77.7973 73.714 77.7687 73.6104 77.8888C73.5069 77.9976 73.4781 78.1921 73.5989 78.2894Z" fill="#413147"/>
<path d="M74.9565 75.2395C75.2211 75.3425 75.4857 75.4512 75.756 75.5427C75.8826 75.5885 76.0149 75.6286 76.1414 75.6743C76.2795 75.7201 76.429 75.743 76.5728 75.7659C76.7454 75.7945 76.8489 75.5828 76.6936 75.4798C76.5728 75.3997 76.452 75.3139 76.3197 75.2509C76.1932 75.1937 76.0609 75.1307 75.9343 75.0735C75.6582 74.9476 75.3764 74.8389 75.1003 74.7245C74.968 74.673 74.8011 74.7817 74.7666 74.9133C74.7379 75.0621 74.8184 75.1822 74.9565 75.2395Z" fill="#413147"/>
<defs>
<linearGradient id="paint0_linear_2_85" x1="42.2447" y1="21.8579" x2="42.2447" y2="78.1216" gradientUnits="userSpaceOnUse">
<stop stop-color="#555766"/>
<stop offset="1" stop-color="#2E3038"/>
</linearGradient>
</defs>
</svg>
