<svg width="36" height="36" viewBox="0 0 36 36" fill="none" xmlns="http://www.w3.org/2000/svg">
<path d="M21.4453 18C21.4453 19.9028 19.9028 21.4453 18 21.4453C16.0972 21.4453 14.5547 19.9028 14.5547 18C14.5547 16.0972 16.0972 14.5547 18 14.5547C19.9028 14.5547 21.4453 16.0972 21.4453 18Z" fill="url(#paint0_linear_2_188)"/>
<path d="M26.0573 11.9041C25.8916 11.4553 25.6274 11.0491 25.2841 10.7156C24.9507 10.3723 24.5447 10.1081 24.0956 9.94247C23.7314 9.80103 23.1843 9.63266 22.1766 9.58679C21.0865 9.53708 20.7596 9.52637 17.9999 9.52637C15.2398 9.52637 14.913 9.5368 13.8232 9.58652C12.8154 9.63266 12.268 9.80103 11.9041 9.94247C11.455 10.1081 11.0488 10.3723 10.7157 10.7156C10.3723 11.0491 10.1081 11.455 9.94223 11.9041C9.80078 12.2683 9.63242 12.8157 9.58655 13.8234C9.53683 14.9132 9.52612 15.2401 9.52612 18.0001C9.52612 20.7599 9.53683 21.0867 9.58655 22.1768C9.63242 23.1846 9.80078 23.7317 9.94223 24.0959C10.1081 24.545 10.3721 24.9509 10.7154 25.2843C11.0488 25.6277 11.4548 25.8919 11.9038 26.0575C12.268 26.1992 12.8154 26.3676 13.8232 26.4135C14.913 26.4632 15.2396 26.4736 17.9996 26.4736C20.7599 26.4736 21.0868 26.4632 22.1763 26.4135C23.1841 26.3676 23.7314 26.1992 24.0956 26.0575C24.9971 25.7098 25.7095 24.9973 26.0573 24.0959C26.1987 23.7317 26.3671 23.1846 26.4132 22.1768C26.4629 21.0867 26.4734 20.7599 26.4734 18.0001C26.4734 15.2401 26.4629 14.9132 26.4132 13.8234C26.3673 12.8157 26.199 12.2683 26.0573 11.9041ZM17.9999 23.3073C15.0685 23.3073 12.6921 20.9313 12.6921 17.9998C12.6921 15.0684 15.0685 12.6924 17.9999 12.6924C20.931 12.6924 23.3074 15.0684 23.3074 17.9998C23.3074 20.9313 20.931 23.3073 17.9999 23.3073ZM23.5172 13.7229C22.8322 13.7229 22.2769 13.1675 22.2769 12.4825C22.2769 11.7975 22.8322 11.2422 23.5172 11.2422C24.2022 11.2422 24.7576 11.7975 24.7576 12.4825C24.7573 13.1675 24.2022 13.7229 23.5172 13.7229Z" fill="url(#paint1_linear_2_188)"/>
<path d="M18 0C8.06039 0 0 8.06039 0 18C0 27.9396 8.06039 36 18 36C27.9396 36 36 27.9396 36 18C36 8.06039 27.9396 0 18 0ZM28.2736 22.2613C28.2236 23.3616 28.0486 24.1128 27.7932 24.7703C27.2563 26.1587 26.1587 27.2563 24.7703 27.7932C24.1131 28.0486 23.3616 28.2233 22.2616 28.2736C21.1594 28.3239 20.8073 28.3359 18.0003 28.3359C15.193 28.3359 14.8412 28.3239 13.7387 28.2736C12.6387 28.2233 11.8872 28.0486 11.2299 27.7932C10.54 27.5337 9.91544 27.1269 9.39908 26.6009C8.87338 26.0848 8.46661 25.46 8.20706 24.7703C7.95163 24.1131 7.77667 23.3616 7.72668 22.2616C7.67587 21.1591 7.66406 20.807 7.66406 18C7.66406 15.193 7.67587 14.8409 7.72641 13.7387C7.7764 12.6384 7.95108 11.8872 8.20651 11.2297C8.46606 10.54 8.87311 9.91516 9.39908 9.39908C9.91516 8.87311 10.54 8.46634 11.2297 8.20679C11.8872 7.95135 12.6384 7.77667 13.7387 7.72641C14.8409 7.67615 15.193 7.66406 18 7.66406C20.807 7.66406 21.1591 7.67615 22.2613 7.72668C23.3616 7.77667 24.1128 7.95135 24.7703 8.20651C25.46 8.46606 26.0848 8.87311 26.6012 9.39908C27.1269 9.91544 27.5339 10.54 27.7932 11.2297C28.0489 11.8872 28.2236 12.6384 28.2739 13.7387C28.3241 14.8409 28.3359 15.193 28.3359 18C28.3359 20.807 28.3241 21.1591 28.2736 22.2613Z" fill="url(#paint2_linear_2_188)"/>
<defs>
<linearGradient id="paint0_linear_2_188" x1="15.2164" y1="20.3701" x2="23.7636" y2="13.0922" gradientUnits="userSpaceOnUse">
<stop offset="0.0011048" stop-color="#FBE18A"/>
<stop offset="0.2094" stop-color="#FCBB45"/>
<stop offset="0.3765" stop-color="#F75274"/>
<stop offset="0.5238" stop-color="#D53692"/>
<stop offset="0.7394" stop-color="#8F39CE"/>
<stop offset="1" stop-color="#5B4FE9"/>
</linearGradient>
<linearGradient id="paint1_linear_2_188" x1="11.1536" y1="23.8291" x2="32.1752" y2="5.9294" gradientUnits="userSpaceOnUse">
<stop offset="0.0011048" stop-color="#FBE18A"/>
<stop offset="0.2094" stop-color="#FCBB45"/>
<stop offset="0.3765" stop-color="#F75274"/>
<stop offset="0.5238" stop-color="#D53692"/>
<stop offset="0.7394" stop-color="#8F39CE"/>
<stop offset="1" stop-color="#5B4FE9"/>
</linearGradient>
<linearGradient id="paint2_linear_2_188" x1="3.45706" y1="30.3824" x2="48.1121" y2="-7.64083" gradientUnits="userSpaceOnUse">
<stop offset="0.0011048" stop-color="#FBE18A"/>
<stop offset="0.2094" stop-color="#FCBB45"/>
<stop offset="0.3765" stop-color="#F75274"/>
<stop offset="0.5238" stop-color="#D53692"/>
<stop offset="0.7394" stop-color="#8F39CE"/>
<stop offset="1" stop-color="#5B4FE9"/>
</linearGradient>
</defs>
</svg>
