<svg width="28" height="24" viewBox="0 0 28 24" fill="none" xmlns="http://www.w3.org/2000/svg">
<path d="M26 12C26 20 22 24 14 24C6 24 2 20 2 12C2 4 6 0 14 0C22 0 26 4 26 12Z" fill="url(#paint0_linear_2_461)"/>
<g filter="url(#filter0_d_2_461)">
<path d="M20.5695 7.87425C18.4562 4.40221 15.2726 6.81775 15.2726 6.81775C15.0662 6.97379 14.6855 7.10209 14.4268 7.10269L13.5741 7.10328C13.3154 7.10358 12.9347 6.97528 12.7285 6.81924C12.7285 6.81924 9.54468 4.4031 7.43108 7.87515C5.31807 11.346 6.1696 15.1259 6.1696 15.1259C6.31878 16.0515 6.81048 16.6691 7.73839 16.5915C8.66361 16.5142 10.6719 14.099 10.6719 14.099C10.8378 13.9 11.1854 13.7374 11.4435 13.7374L16.5556 13.7365C16.814 13.7365 17.1613 13.8991 17.3269 14.0981C17.3269 14.0981 19.3354 16.5133 20.2622 16.5906C21.1889 16.6682 21.6818 16.05 21.83 15.1251C21.8297 15.1251 22.6828 11.3457 20.5695 7.87425ZM12.079 10.7003H10.9828V11.7568C10.9828 11.7568 10.7507 11.9341 10.3914 11.9296C10.0328 11.9242 9.87049 11.7363 9.87049 11.7363V10.7006H8.83517C8.83517 10.7006 8.70598 10.5682 8.67137 10.2194C8.63736 9.87059 8.81428 9.58864 8.81428 9.58864H9.91077V8.49246C9.91077 8.49246 10.1363 8.37162 10.4606 8.38087C10.7853 8.39101 11.0231 8.51304 11.0231 8.51304L11.0186 9.58834H12.0539C12.0539 9.58834 12.2347 9.82047 12.2496 10.1009C12.2645 10.3817 12.079 10.7003 12.079 10.7003ZM17.107 11.9045C16.6269 11.9045 16.2399 11.5164 16.2399 11.0369C16.2399 10.5565 16.6269 10.1693 17.107 10.1693C17.5849 10.1693 17.9749 10.5565 17.9749 11.0369C17.9749 11.5167 17.5849 11.9045 17.107 11.9045ZM17.107 9.51733C16.6269 9.51733 16.2399 9.12946 16.2399 8.64999C16.2399 8.16963 16.6269 7.78236 17.107 7.78236C17.5849 7.78236 17.9749 8.16963 17.9749 8.64999C17.9749 9.12976 17.5849 9.51733 17.107 9.51733ZM19.2677 10.7988C18.7876 10.7988 18.4007 10.4109 18.4007 9.93116C18.4007 9.4511 18.7876 9.06352 19.2677 9.06352C19.7457 9.06352 20.1356 9.4511 20.1356 9.93116C20.1356 10.4109 19.7457 10.7988 19.2677 10.7988Z" fill="url(#paint1_linear_2_461)"/>
</g>
<defs>
<filter id="filter0_d_2_461" x="0" y="0" width="28" height="22.5981" filterUnits="userSpaceOnUse" color-interpolation-filters="sRGB">
<feFlood flood-opacity="0" result="BackgroundImageFix"/>
<feColorMatrix in="SourceAlpha" type="matrix" values="0 0 0 0 0 0 0 0 0 0 0 0 0 0 0 0 0 0 127 0" result="hardAlpha"/>
<feOffset/>
<feGaussianBlur stdDeviation="3"/>
<feColorMatrix type="matrix" values="0 0 0 0 0.775 0 0 0 0 0.291506 0 0 0 0 0.0775 0 0 0 1 0"/>
<feBlend mode="normal" in2="BackgroundImageFix" result="effect1_dropShadow_2_461"/>
<feBlend mode="normal" in="SourceGraphic" in2="effect1_dropShadow_2_461" result="shape"/>
</filter>
<linearGradient id="paint0_linear_2_461" x1="14" y1="0" x2="14" y2="24" gradientUnits="userSpaceOnUse">
<stop stop-color="#F87B43"/>
<stop offset="1" stop-color="#FCAB86"/>
</linearGradient>
<linearGradient id="paint1_linear_2_461" x1="14" y1="6" x2="14" y2="16.5981" gradientUnits="userSpaceOnUse">
<stop stop-color="white"/>
<stop offset="1" stop-color="#FFD9C8"/>
</linearGradient>
</defs>
</svg>
