<svg width="27" height="26" viewBox="0 0 27 26" fill="none" xmlns="http://www.w3.org/2000/svg">
<path d="M25 13C25 21 21 25 13 25C5 25 1 21 1 13C1 5 5 1 13 1C21 1 25 5 25 13Z" fill="url(#paint0_linear_2_478)"/>
<g filter="url(#filter0_d_2_478)">
<path fill-rule="evenodd" clip-rule="evenodd" d="M17.9176 6.78737C17.9176 6.39879 17.6063 6.08183 17.2178 6.07476L13.1059 6L9.08142 6.07317C8.64435 6.08112 8.29419 6.4377 8.29419 6.87485L8.30093 6.94903C8.27094 6.9413 8.23949 6.93719 8.20708 6.93719H8.14553C7.48344 6.93719 6.87289 7.21285 6.47212 7.66354C6.06617 8.12006 5.87989 8.75472 6.08252 9.42536C6.28042 10.0803 6.59831 10.7983 7.11578 11.3577C7.64309 11.9277 8.37087 12.3239 9.34438 12.3239C9.48668 12.3239 9.61046 12.2446 9.674 12.1279C9.76195 12.2732 9.85594 12.4179 9.95641 12.5614C10.5688 13.4362 11.2687 13.9611 12.1435 14.3986V16.6732H12.5603C11.8044 16.682 11.1638 17.1701 10.9281 17.8478H8.29464C7.88043 17.8478 7.54464 18.1836 7.54464 18.5978C7.54464 19.0121 7.88043 19.3478 8.29464 19.3478H17.918C18.3322 19.3478 18.668 19.0121 18.668 18.5978C18.668 18.1836 18.3322 17.8478 17.918 17.8478H15.284C15.0483 17.1701 14.4076 16.682 13.6517 16.6732H14.0682V14.3986C14.9431 13.9611 15.6429 13.3488 16.2553 12.5614C16.356 12.4176 16.4501 12.2727 16.5382 12.1271C16.6016 12.2443 16.7256 12.3239 16.8682 12.3239C17.8417 12.3239 18.5695 11.9277 19.0968 11.3577C19.6143 10.7983 19.9322 10.0803 20.1301 9.42536C20.3327 8.75472 20.1464 8.12006 19.7405 7.66354C19.3397 7.21285 18.7292 6.93719 18.0671 6.93719H18.0056C17.9704 6.93719 17.9363 6.94205 17.9039 6.95114L17.9176 6.78737ZM17.8456 7.6514L17.8301 7.83719C17.7588 8.69195 17.5716 10.1267 16.8434 11.5747C16.8516 11.5742 16.8599 11.5739 16.8682 11.5739C17.6119 11.5739 18.1461 11.2809 18.5463 10.8484C18.9563 10.4052 19.2312 9.80715 19.4122 9.20843C19.5333 8.80758 19.4272 8.43988 19.18 8.16192C18.9277 7.87813 18.5243 7.68719 18.0671 7.68719H18.0056C17.9484 7.68719 17.8941 7.67435 17.8456 7.6514ZM9.36829 11.5747C8.64012 10.1266 8.4529 8.69194 8.38167 7.83719L8.36488 7.65247C8.31691 7.67475 8.26345 7.68719 8.20708 7.68719H8.14553C7.68827 7.68719 7.28493 7.87814 7.03258 8.16192C6.78541 8.43989 6.67935 8.80758 6.80047 9.20843C6.98137 9.80715 7.25635 10.4052 7.66634 10.8484C8.06648 11.2809 8.60074 11.5739 9.34438 11.5739C9.35241 11.5739 9.36039 11.5742 9.36829 11.5747ZM13.3476 11.3377C13.1974 11.255 13.0154 11.255 12.8652 11.3377L12.5629 11.5042C12.198 11.7051 11.7617 11.3977 11.8282 10.9864L11.8971 10.5598C11.9223 10.4037 11.8722 10.2449 11.7619 10.1315L11.4492 9.80998C11.166 9.51877 11.3298 9.02925 11.7313 8.96723L12.1211 8.90701C12.2853 8.88164 12.4262 8.77634 12.4971 8.62602L12.6541 8.29279C12.8344 7.91031 13.3785 7.91031 13.5587 8.29279L13.7157 8.62602C13.7866 8.77634 13.9275 8.88164 14.0917 8.90701L14.4815 8.96723C14.883 9.02925 15.0468 9.51877 14.7636 9.80998L14.4509 10.1315C14.3406 10.2449 14.2905 10.4037 14.3157 10.5598L14.3847 10.9864C14.4511 11.3977 14.0148 11.7051 13.6499 11.5042L13.3476 11.3377Z" fill="url(#paint1_linear_2_478)"/>
</g>
<defs>
<filter id="filter0_d_2_478" x="6.10352e-05" y="0" width="26.2125" height="25.3477" filterUnits="userSpaceOnUse" color-interpolation-filters="sRGB">
<feFlood flood-opacity="0" result="BackgroundImageFix"/>
<feColorMatrix in="SourceAlpha" type="matrix" values="0 0 0 0 0 0 0 0 0 0 0 0 0 0 0 0 0 0 127 0" result="hardAlpha"/>
<feOffset/>
<feGaussianBlur stdDeviation="3"/>
<feColorMatrix type="matrix" values="0 0 0 0 0.10684 0 0 0 0 0.580154 0 0 0 0 0.754167 0 0 0 1 0"/>
<feBlend mode="normal" in2="BackgroundImageFix" result="effect1_dropShadow_2_478"/>
<feBlend mode="normal" in="SourceGraphic" in2="effect1_dropShadow_2_478" result="shape"/>
</filter>
<linearGradient id="paint0_linear_2_478" x1="13" y1="1" x2="13" y2="25" gradientUnits="userSpaceOnUse">
<stop stop-color="#2FBFF4"/>
<stop offset="1" stop-color="#89D2ED"/>
</linearGradient>
<linearGradient id="paint1_linear_2_478" x1="13.1063" y1="6" x2="13.1063" y2="19.3478" gradientUnits="userSpaceOnUse">
<stop stop-color="white"/>
<stop offset="1" stop-color="#E0F7FF"/>
</linearGradient>
</defs>
</svg>
