<svg width="38" height="38" viewBox="0 0 38 38" fill="none" xmlns="http://www.w3.org/2000/svg">
<g filter="url(#filter0_d_2_506)">
<path d="M31 15C31 23 27 27 19 27C11 27 7 23 7 15C7 7 11 3 19 3C27 3 31 7 31 15Z" fill="url(#paint0_linear_2_506)"/>
</g>
<g filter="url(#filter1_d_2_506)">
<path fill-rule="evenodd" clip-rule="evenodd" d="M23.4324 11.9018H26.5C26.5 9.43883 25.0242 8 22.5238 8H15.9762C13.4758 8 12 9.43883 12 11.8704V17.1796C12 19.6112 13.4758 21.05 15.9762 21.05H22.5238C25.0242 21.05 26.5 19.6112 26.5 17.1796V16.9534H23.4324C22.0088 16.9534 20.8547 15.8282 20.8547 14.4402C20.8547 13.0522 22.0088 11.9269 23.4324 11.9269V11.9018ZM23.4324 12.9825H25.9586C26.2576 12.9825 26.5 13.2188 26.5 13.5103V15.3449C26.4965 15.635 26.2561 15.8693 25.9586 15.8727H23.4904C22.7697 15.8822 22.1394 15.401 21.976 14.7166C21.8941 14.2917 22.009 13.8533 22.2899 13.5188C22.5709 13.1844 22.989 12.988 23.4324 12.9825ZM23.5417 14.9114H23.7801C24.0862 14.9114 24.3343 14.6694 24.3343 14.371C24.3343 14.0726 24.0862 13.8307 23.7801 13.8307H23.5417C23.3953 13.829 23.2543 13.8845 23.1501 13.9849C23.046 14.0852 22.9874 14.222 22.9874 14.3647C22.9874 14.6642 23.2345 14.9079 23.5417 14.9114ZM15.435 11.9018H19.5273C19.8333 11.9018 20.0815 11.6599 20.0815 11.3615C20.0815 11.0631 19.8333 10.8211 19.5273 10.8211H15.435C15.1314 10.8211 14.8843 11.0592 14.8808 11.3552C14.8808 11.6547 15.1279 11.8984 15.435 11.9018Z" fill="url(#paint1_linear_2_506)"/>
</g>
<defs>
<filter id="filter0_d_2_506" x="0" y="0" width="38" height="38" filterUnits="userSpaceOnUse" color-interpolation-filters="sRGB">
<feFlood flood-opacity="0" result="BackgroundImageFix"/>
<feColorMatrix in="SourceAlpha" type="matrix" values="0 0 0 0 0 0 0 0 0 0 0 0 0 0 0 0 0 0 127 0" result="hardAlpha"/>
<feMorphology radius="8" operator="erode" in="SourceAlpha" result="effect1_dropShadow_2_506"/>
<feOffset dy="4"/>
<feGaussianBlur stdDeviation="7.5"/>
<feColorMatrix type="matrix" values="0 0 0 0 0.984314 0 0 0 0 0.662745 0 0 0 0 0.278431 0 0 0 0.2 0"/>
<feBlend mode="normal" in2="BackgroundImageFix" result="effect1_dropShadow_2_506"/>
<feBlend mode="normal" in="SourceGraphic" in2="effect1_dropShadow_2_506" result="shape"/>
</filter>
<filter id="filter1_d_2_506" x="6" y="2" width="26.5" height="25.0498" filterUnits="userSpaceOnUse" color-interpolation-filters="sRGB">
<feFlood flood-opacity="0" result="BackgroundImageFix"/>
<feColorMatrix in="SourceAlpha" type="matrix" values="0 0 0 0 0 0 0 0 0 0 0 0 0 0 0 0 0 0 127 0" result="hardAlpha"/>
<feOffset/>
<feGaussianBlur stdDeviation="3"/>
<feColorMatrix type="matrix" values="0 0 0 0 0.8125 0 0 0 0 0.510706 0 0 0 0 0.145573 0 0 0 1 0"/>
<feBlend mode="normal" in2="BackgroundImageFix" result="effect1_dropShadow_2_506"/>
<feBlend mode="normal" in="SourceGraphic" in2="effect1_dropShadow_2_506" result="shape"/>
</filter>
<linearGradient id="paint0_linear_2_506" x1="19" y1="3" x2="19" y2="27" gradientUnits="userSpaceOnUse">
<stop stop-color="#FF912C"/>
<stop offset="1" stop-color="#FDC786"/>
</linearGradient>
<linearGradient id="paint1_linear_2_506" x1="19.25" y1="8" x2="19.25" y2="21.05" gradientUnits="userSpaceOnUse">
<stop stop-color="white"/>
<stop offset="1" stop-color="#FFE6C7"/>
</linearGradient>
</defs>
</svg>
