<svg width="20" height="25" viewBox="0 0 20 25" fill="none" xmlns="http://www.w3.org/2000/svg">
<path d="M16.7046 13.2949C16.729 11.365 17.7481 9.53894 19.3649 8.52811C18.3449 7.04675 16.6366 6.10753 14.8593 6.05097C12.9636 5.84862 11.1258 7.20458 10.1598 7.20458C9.17515 7.20458 7.68783 6.07106 6.08625 6.10458C3.99865 6.17317 2.05248 7.38022 1.03682 9.23633C-1.14645 13.0805 0.482076 18.7302 2.57346 21.8375C3.61983 23.3591 4.84273 25.0587 6.44287 24.9984C8.00871 24.9324 8.59352 23.983 10.4836 23.983C12.3562 23.983 12.9048 24.9984 14.5375 24.9601C16.2177 24.9324 17.2763 23.4318 18.2859 21.8958C19.0377 20.8116 19.6163 19.6134 20.0001 18.3454C18.0255 17.4961 16.7069 15.4752 16.7046 13.2949Z" fill="black"/>
<path d="M13.6208 4.00743C14.5369 2.88898 14.9883 1.45141 14.879 0C13.4794 0.149501 12.1865 0.829792 11.258 1.90533C10.35 2.95618 9.87755 4.36846 9.96687 5.7644C11.367 5.77906 12.7435 5.11721 13.6208 4.00743Z" fill="black"/>
</svg>
