<svg width="25" height="28" viewBox="0 0 25 28" fill="none" xmlns="http://www.w3.org/2000/svg">
<path fill-rule="evenodd" clip-rule="evenodd" d="M0.694329 1.33958C0.563026 1.62491 0.490265 1.97755 0.490265 2.38973V25.6115C0.490265 26.0246 0.563116 26.3773 0.694572 26.6625L13.3773 14.0002L0.694329 1.33958ZM1.38939 27.3818C1.86173 27.5954 2.4837 27.5364 3.16302 27.1519L18.0772 18.6918L14.085 14.7067L1.38939 27.3818ZM18.9804 18.1805L23.6752 15.5179C25.1446 14.6831 25.1446 13.3192 23.6752 12.4855L18.9784 9.82132L14.7927 14.0002L18.9804 18.1805ZM18.0758 9.30936L3.16302 0.850438C2.48366 0.465066 1.86166 0.406503 1.38931 0.620366L14.085 13.2937L18.0758 9.30936Z" fill="black"/>
</svg>
